<svg aria-hidden="true" style="position:absolute;width:0;height:0;overflow:hidden" xmlns="http://www.w3.org/2000/svg"><defs><symbol id="phone" viewBox="0 0 32 32"><path d="M15.331 19.76c-.026-.018-3.034-5.075-3.044-5.14-.622-1.359-1.124-2.749-.078-3.366l-4.341-7.32c-1.125.841-4.307 5.405 1.649 15.748 6.274 10.9 12.245 10.447 13.442 9.709l-4.23-7.145c-1 .588-1.842-.381-3.398-2.486zm10.531 6.857.001-.006-3.305-5.568a.924.924 0 0 0-1.264-.324l-2.024 1.197 4.242 7.166s2.024-1.191 2.023-1.195h.004a.922.922 0 0 0 .323-1.27zM14.786 9.736v-.004a.918.918 0 0 0 .325-1.265l.002-.006s-3.398-5.729-3.4-5.73a.921.921 0 0 0-1.263-.324L8.426 3.604l4.336 7.324s2.023-1.189 2.024-1.192z"/></symbol><symbol id="map" viewBox="0 0 32 32"><path d="m19.985 28.05 7.033-3.214V3.95l-7.033 3.213V28.05zm-7.97-3.214 6.98 2.893V6.842l-6.98-2.892v20.886zM3.981 7.163V28.05l7.043-2.892V4.271L3.981 7.163z"/></symbol><symbol id="mail" viewBox="0 0 32 32"><path d="M22.185 20.127 20 22l5.923 5.077-.808.808-5.996-5.139-5.223.023-.021-.018-5.99 5.135-.808-.808L13 22.001l-2.185-1.873L7 16.901v-5.54l-3 2.64v14.006c0 1.101.89 1.994 2.004 1.994h20.993a2 2 0 0 0 2.004-1.994V14.001l-3-2.64v5.54l-3.815 3.227zM13.091 6 16.5 3l3.409 3h-6.818zM9 7c-.552 0-1 .444-1 1.002V16.2l6.252 5.316h4.42L25 16.2V8.002C25 7.449 24.545 7 24 7H9z"/></symbol></defs></svg>