<svg aria-hidden="true" style="position: absolute; width: 0; height: 0; overflow: hidden;" version="1.1" xmlns="http://www.w3.org/2000/svg" xmlns:xlink="http://www.w3.org/1999/xlink">
<defs>
<symbol id="phone" viewBox="0 0 32 32">
<path d="M15.331 19.76c-0.026-0.018-3.034-5.075-3.044-5.14-0.622-1.359-1.124-2.749-0.078-3.366l-4.341-7.32c-1.125 0.841-4.307 5.405 1.649 15.748 6.274 10.9 12.245 10.447 13.442 9.709l-4.23-7.145c-1 0.588-1.842-0.381-3.398-2.486zM25.862 26.617l0.001-0.006c0 0-3.303-5.566-3.305-5.568-0.262-0.441-0.825-0.58-1.264-0.324l-2.024 1.197 4.242 7.166c0 0 2.024-1.191 2.023-1.195h0.004c0.465-0.276 0.572-0.846 0.323-1.27zM14.786 9.736v-0.004c0.465-0.275 0.574-0.845 0.325-1.265l0.002-0.006c0 0-3.398-5.729-3.4-5.73-0.261-0.443-0.826-0.58-1.263-0.324l-2.024 1.197 4.336 7.324c0 0 2.023-1.189 2.024-1.192z"></path>
</symbol>
<symbol id="map" viewBox="0 0 32 32">
<path d="M19.985 28.050l7.033-3.214v-20.886l-7.033 3.213v20.887zM12.015 24.836l6.98 2.893v-20.887l-6.98-2.892v20.886zM3.981 7.163v20.887l7.043-2.892v-20.887l-7.043 2.892z"></path>
</symbol>
<symbol id="mail" viewBox="0 0 32 32">
<path d="M22.185 20.127l-2.185 1.873 5.923 5.077-0.808 0.808-5.996-5.139-5.223 0.023-0.021-0.018-5.99 5.135-0.808-0.808 5.923-5.077-2.185-1.873-3.815-3.227v-5.54l-3 2.64v14.006c0 1.101 0.89 1.994 2.004 1.994h20.993c1.107 0 2.004-0.895 2.004-1.994v-14.006l-3-2.64v5.54l-3.815 3.227zM13.091 6l3.409-3 3.409 3h-6.818zM9 7c-0.552 0-1 0.444-1 1.002v8.198l6.252 5.316h4.42l6.328-5.316v-8.198c0-0.553-0.455-1.002-1-1.002h-15z"></path>
</symbol>
</defs>
</svg>
